<svg width="546" height="503" viewBox="0 0 546 503" fill="none" xmlns="http://www.w3.org/2000/svg">
<path fill-rule="evenodd" clip-rule="evenodd" d="M38.9963 22.2729H4.13187C1.92577 22.2729 0.133301 24.0753 0.133301 26.2715V43.4181C0.133301 45.6242 1.93561 47.4167 4.13187 47.4167H27.3354L32.0234 52.8827L32.1022 52.9615C32.4173 53.2274 32.8901 53.1978 33.1658 52.8827L37.8538 47.4167H39.0061C41.2122 47.4167 43.0047 45.6143 43.0047 43.4181V26.2715C43.0047 24.0654 41.2024 22.2729 38.9963 22.2729Z" fill="#FE99A6"/>
<path fill-rule="evenodd" clip-rule="evenodd" d="M6.09196 30.5173C7.35259 29.2566 9.42082 29.2566 10.6815 30.5173L11.5678 31.4036L12.4542 30.5173C13.7149 29.2566 15.7831 29.2566 17.0437 30.5173C18.3043 31.7779 18.3043 33.8461 17.0437 35.1067L16.1573 35.9931L11.5678 40.5826L6.97834 35.9931L6.09196 35.1067C4.83133 33.8461 4.83133 31.7779 6.09196 30.5173Z" fill="white"/>
<path d="M28.9995 34.9983C28.9995 36.8597 28.6056 38.2385 27.8275 39.1544C27.0495 40.0704 25.8578 40.5234 24.2721 40.5234C23.7108 40.5234 23.2873 40.4938 23.0017 40.4348V38.8393C23.3661 38.9279 23.7403 38.9771 24.1343 38.9771C24.804 38.9771 25.3456 38.8787 25.779 38.6817C26.2123 38.4847 26.5373 38.1794 26.7639 37.7559C26.9904 37.3324 27.1184 36.7612 27.1578 36.0225H27.079C26.8328 36.4263 26.5373 36.7119 26.2123 36.8695C25.8873 37.037 25.4737 37.1157 24.9911 37.1157C24.1737 37.1157 23.5236 36.8498 23.0509 36.3278C22.5782 35.796 22.3418 35.0672 22.3418 34.1316C22.3418 33.1172 22.6274 32.3194 23.1986 31.7383C23.7699 31.1474 24.5578 30.8618 25.5426 30.8618C26.2419 30.8618 26.8525 31.0292 27.3745 31.3543C27.8965 31.6793 28.3003 32.152 28.576 32.7725C28.8616 33.3929 28.9995 34.1414 28.9995 34.9983ZM25.5919 32.4672C25.1782 32.4672 24.8532 32.605 24.6267 32.8907C24.4002 33.1763 24.282 33.5801 24.282 34.1119C24.282 34.5649 24.3903 34.9293 24.5971 35.1953C24.804 35.4612 25.129 35.5991 25.5525 35.5991C25.9563 35.5991 26.301 35.471 26.5866 35.2051C26.8722 34.9392 27.0199 34.6339 27.0199 34.2892C27.0199 33.777 26.8821 33.3437 26.6161 32.9891C26.3502 32.6444 26.0055 32.4672 25.5919 32.4672Z" fill="white"/>
<path d="M36.5435 34.9983C36.5435 36.8597 36.1495 38.2385 35.3715 39.1544C34.5934 40.0704 33.4017 40.5234 31.8161 40.5234C31.2547 40.5234 30.8312 40.4938 30.5456 40.4348V38.8393C30.91 38.9279 31.2843 38.9771 31.6782 38.9771C32.3479 38.9771 32.8896 38.8787 33.3229 38.6817C33.7563 38.4847 34.0813 38.1794 34.3078 37.7559C34.5343 37.3324 34.6624 36.7612 34.7018 36.0225H34.623C34.3767 36.4263 34.0813 36.7119 33.7563 36.8695C33.4313 37.037 33.0176 37.1157 32.535 37.1157C31.7176 37.1157 31.0676 36.8498 30.5948 36.3278C30.1221 35.796 29.8857 35.0672 29.8857 34.1316C29.8857 33.1172 30.1713 32.3194 30.7426 31.7383C31.3138 31.1474 32.1017 30.8618 33.0866 30.8618C33.7858 30.8618 34.3964 31.0292 34.9184 31.3543C35.4404 31.6793 35.8442 32.152 36.12 32.7725C36.3957 33.3929 36.5435 34.1414 36.5435 34.9983ZM33.126 32.4672C32.7123 32.4672 32.3873 32.605 32.1608 32.8907C31.9244 33.1763 31.8161 33.5801 31.8161 34.1119C31.8161 34.5649 31.9244 34.9293 32.1312 35.1953C32.3381 35.4612 32.6631 35.5991 33.0866 35.5991C33.4904 35.5991 33.8351 35.471 34.1207 35.2051C34.4063 34.9392 34.554 34.6339 34.554 34.2892C34.554 33.777 34.4161 33.3437 34.1502 32.9891C33.8843 32.6444 33.5495 32.4672 33.126 32.4672Z" fill="white"/>
<path fill-rule="evenodd" clip-rule="evenodd" d="M492.426 81.7158C504.264 91.7074 521.96 90.216 531.952 78.3775C537.5 71.8015 539.509 63.4171 538.164 55.5506C540.243 52.9464 542.816 49.9173 543.96 48.3486C545.196 46.6563 544.416 44.4926 542.167 44.3071L533.026 43.5344C531.766 41.8421 530.29 40.2656 528.613 38.8515C516.775 28.8599 499.079 30.3513 489.087 42.1898C479.096 54.0283 480.595 71.7242 492.426 81.7158Z" fill="#FE99A6"/>
<path fill-rule="evenodd" clip-rule="evenodd" d="M488.569 41.7484C488.816 41.4547 489.249 41.4238 489.543 41.6711C489.836 41.9184 489.867 42.3511 489.62 42.6448C484.744 48.4172 482.673 55.6192 483.26 62.5971C483.848 69.575 487.101 76.3288 492.873 81.2048C498.646 86.0809 505.848 88.1518 512.826 87.5645C519.804 86.9773 526.557 83.724 531.433 77.9516C534.084 74.8065 535.908 71.2364 536.928 67.5118C537.979 63.6403 538.164 59.5988 537.5 55.6887C537.461 55.4801 537.523 55.2792 537.654 55.1246C538.512 54.0505 539.37 52.9996 540.196 51.995C541.518 50.38 542.746 48.8886 543.419 47.9613C543.689 47.5981 543.828 47.204 543.859 46.833C543.882 46.5394 543.844 46.2612 543.728 46.0139C543.62 45.7744 543.45 45.558 543.226 45.388C542.947 45.1871 542.576 45.048 542.128 45.0094L532.987 44.2366C532.763 44.2212 532.577 44.0975 532.461 43.9198C531.851 43.1084 531.186 42.3125 530.475 41.5552C529.764 40.7979 528.999 40.0715 528.188 39.3915C525.537 37.1505 522.578 35.5046 519.487 34.4305C516.272 33.3177 512.911 32.8309 509.565 32.9468C509.186 32.9622 508.869 32.6609 508.854 32.2822C508.838 31.9036 509.14 31.5867 509.518 31.5713C513.027 31.4477 516.558 31.9577 519.935 33.1245C523.188 34.2527 526.295 35.9837 529.077 38.3328C529.927 39.0515 530.73 39.8088 531.48 40.6047C532.168 41.3311 532.809 42.0961 533.412 42.8766L542.252 43.6262C542.971 43.688 543.581 43.9198 544.052 44.2675C544.485 44.5844 544.81 44.9939 545.011 45.4498C545.212 45.9058 545.297 46.4158 545.25 46.9335C545.196 47.5517 544.964 48.1854 544.539 48.7649C543.821 49.7463 542.592 51.2454 541.271 52.8605C540.475 53.8341 539.64 54.8542 538.914 55.7506C539.555 59.7611 539.346 63.8953 538.265 67.8595C537.198 71.7696 535.282 75.5252 532.492 78.8248C527.369 84.8909 520.275 88.3064 512.949 88.9246C505.624 89.5428 498.059 87.3636 491.992 82.2403C485.926 77.1247 482.511 70.0309 481.893 62.6975C481.267 55.3719 483.446 47.8067 488.569 41.7484Z" fill="white"/>
<path fill-rule="evenodd" clip-rule="evenodd" d="M504.643 52.5818H497.75C497.626 52.5818 497.51 52.6282 497.433 52.7132C497.348 52.7982 497.302 52.9064 497.302 53.03V68.3072C497.302 68.4309 497.356 68.5468 497.433 68.6241C497.518 68.7091 497.626 68.7554 497.75 68.7554H504.643C504.766 68.7554 504.882 68.7091 504.96 68.6241C505.045 68.5468 505.091 68.4309 505.091 68.3072V53.0378C505.091 52.9141 505.037 52.7982 504.96 52.7209C504.882 52.6359 504.766 52.5818 504.643 52.5818ZM514.032 62.6121C513.607 62.4421 513.22 62.1948 512.904 61.878C512.309 61.283 511.945 60.4639 511.945 59.5675C511.945 58.6711 512.316 57.852 512.904 57.257C513.074 57.087 513.259 56.9324 513.468 56.8088L513.383 56.7315C512.795 56.1442 512.432 55.3328 512.432 54.4442C512.432 53.5555 512.795 52.7441 513.383 52.1568C513.607 51.9327 513.854 51.7473 514.132 51.6005C513.792 51.1677 513.56 50.5495 513.56 49.6609C513.56 49.4831 513.568 49.1508 513.584 48.7877C513.591 48.4708 513.607 48.1154 513.607 47.6285C513.607 45.4958 513.274 42.8993 510.462 42.8993C510.438 42.8993 510.415 42.8993 510.392 42.8993C510.268 42.8993 509.666 42.9457 509.666 43.8575V48.3317C509.666 49.1508 509.333 50.2945 508.553 51.3068C508.058 51.9559 507.371 52.5509 506.474 52.9991V53.0532V67.635H506.977C507.564 67.635 508.136 68.0213 508.839 68.4927C509.728 69.0877 510.879 69.8605 512.216 69.8605H514.016C513.978 69.6673 513.954 69.4664 513.954 69.2577C513.954 68.4618 514.271 67.7354 514.789 67.2022C514.596 67.0786 514.41 66.9318 514.248 66.7695C513.684 66.2054 513.336 65.4326 513.336 64.5749C513.336 63.8253 513.599 63.1453 514.032 62.6121ZM525.886 57.002C525.986 57.0792 526.079 57.1642 526.164 57.2492C526.759 57.8443 527.122 58.6634 527.122 59.5597C527.122 60.4639 526.751 61.2753 526.164 61.8703C525.893 62.1407 525.577 62.3648 525.229 62.5271C525.7 63.0757 525.994 63.7867 525.994 64.5594C525.994 65.4172 525.646 66.1899 525.082 66.754C524.665 67.1713 524.132 67.4727 523.537 67.5963C523.853 68.0677 524.039 68.6318 524.039 69.2345C524.039 70.0459 523.707 70.78 523.173 71.321C522.64 71.8542 521.898 72.1864 521.087 72.1864H516.914C516.103 72.1864 515.361 71.8542 514.828 71.321C514.812 71.3055 514.797 71.2901 514.789 71.2746L514.735 71.2205H512.223C510.469 71.2205 509.125 70.3164 508.082 69.6132C507.572 69.2732 507.162 68.995 506.984 68.995H506.343C506.25 69.2268 506.111 69.4277 505.941 69.5977C505.609 69.93 505.153 70.1387 504.651 70.1387H497.758C497.255 70.1387 496.792 69.93 496.467 69.6055C496.135 69.2732 495.926 68.8173 495.926 68.315V53.0378C495.926 52.5355 496.135 52.0718 496.467 51.7473C496.799 51.415 497.255 51.2064 497.758 51.2064H504.651C505.145 51.2064 505.593 51.4073 505.926 51.7241C506.59 51.3841 507.1 50.9359 507.471 50.4568C508.051 49.7072 508.29 48.8958 508.29 48.324V43.8498C508.29 41.6475 510.029 41.5161 510.423 41.5161H510.462C514.511 41.5161 514.99 44.8698 514.99 47.6285C514.99 47.9685 514.974 48.4167 514.967 48.8263C514.959 49.089 514.951 49.3363 514.951 49.6609C514.951 51.0054 515.91 51.1832 516.226 51.2064H523.923C524.812 51.2064 525.623 51.5695 526.21 52.1568C526.797 52.7441 527.161 53.5555 527.161 54.4364C527.161 55.3019 526.813 56.0901 526.249 56.6774C526.233 56.6929 526.226 56.7083 526.21 56.7238C526.102 56.8242 525.994 56.917 525.886 57.002ZM515.222 61.453C514.704 61.453 514.233 61.2366 513.885 60.8966C513.545 60.5566 513.329 60.0775 513.329 59.5597C513.329 59.042 513.545 58.5629 513.885 58.2229C514.225 57.8829 514.704 57.6665 515.222 57.6665H515.678H523.853C524.379 57.6665 524.85 57.8829 525.19 58.2229C525.53 58.5629 525.747 59.042 525.747 59.5597C525.747 60.0775 525.53 60.5489 525.19 60.8966C524.85 61.2366 524.371 61.453 523.853 61.453H522.887H516.45H515.222ZM522.887 62.8362C523.367 62.8362 523.792 63.0294 524.108 63.3385C524.417 63.6476 524.611 64.0803 524.611 64.5594C524.611 65.0308 524.417 65.4635 524.101 65.7804C523.792 66.0895 523.359 66.2826 522.88 66.2826H521.079H516.906H516.443C515.971 66.2826 515.539 66.0895 515.222 65.7726C514.913 65.4558 514.719 65.0231 514.719 64.5517C514.719 64.0726 514.913 63.6399 515.222 63.3308C515.531 63.0217 515.964 62.8285 516.443 62.8285H522.887V62.8362ZM516.906 70.8187H521.079C521.512 70.8187 521.906 70.6409 522.192 70.355C522.478 70.0691 522.656 69.675 522.656 69.2423C522.656 68.8095 522.478 68.4154 522.192 68.1295C521.914 67.8513 521.527 67.6736 521.102 67.6659H521.079H516.906H516.883C516.458 67.6736 516.072 67.8513 515.794 68.1295C515.508 68.4154 515.33 68.8095 515.33 69.2423C515.33 69.5668 515.43 69.8682 515.593 70.1155C515.608 70.1309 515.616 70.1541 515.631 70.1696C515.67 70.2237 515.716 70.27 515.755 70.3241L515.786 70.355C516.087 70.6409 516.481 70.8187 516.906 70.8187ZM523.915 52.5818C524.425 52.5818 524.889 52.7905 525.221 53.1305C525.553 53.4628 525.762 53.9264 525.762 54.4364C525.762 54.931 525.569 55.3792 525.252 55.7115L525.221 55.7424C524.889 56.0747 524.425 56.2833 523.915 56.2833H523.846H515.67C515.16 56.2833 514.696 56.0747 514.364 55.7424C514.024 55.4024 513.815 54.9465 513.815 54.4364C513.815 53.9264 514.024 53.4628 514.364 53.1305C514.696 52.7905 515.16 52.5818 515.67 52.5818H523.915Z" fill="white"/>
<g clip-path="url(#clip0_446_31)">
<path d="M481.87 204.993C483.861 151.192 464.502 96.7422 421.831 70.8291C400.768 58.0349 376.141 50.5403 351.5 51.6443C325.078 52.8263 300.177 63.5682 275.251 72.4008C250.324 81.2333 223.329 88.3383 197.635 82.0516C179.045 77.5055 162.692 66.27 144.244 61.1393C71.8062 41.0323 8.69643 123.136 44.1607 188.367C52.8642 204.369 66.2901 217.202 77.5565 231.542C88.8098 245.869 98.2938 263.171 96.7847 281.316C95.5358 296.345 86.9494 309.723 83.3978 324.375C76.6068 352.431 90.0717 383.319 113.372 400.413C136.672 417.506 168.104 421.546 196.152 414.519C224.201 407.492 248.958 390.255 268.447 368.914C278.881 357.497 289.041 344.131 304.028 340.26C318.391 336.546 333.222 342.586 347.806 345.365C374.671 350.496 403.565 343.923 425.564 327.7C460.82 301.709 480.062 253.611 481.87 204.993Z" fill="#FE99A6"/>
<path opacity="0.7" d="M481.87 204.993C483.861 151.192 464.502 96.7422 421.831 70.8291C400.768 58.0349 376.141 50.5403 351.5 51.6443C325.078 52.8263 300.177 63.5682 275.251 72.4008C250.324 81.2333 223.329 88.3383 197.635 82.0516C179.045 77.5055 162.692 66.27 144.244 61.1393C71.8062 41.0323 8.69643 123.136 44.1607 188.367C52.8642 204.369 66.2901 217.202 77.5565 231.542C88.8098 245.869 98.2938 263.171 96.7847 281.316C95.5358 296.345 86.9494 309.723 83.3978 324.375C76.6068 352.431 90.0717 383.319 113.372 400.413C136.672 417.506 168.104 421.546 196.152 414.519C224.201 407.492 248.958 390.255 268.447 368.914C278.881 357.497 289.041 344.131 304.028 340.26C318.391 336.546 333.222 342.586 347.806 345.365C374.671 350.496 403.565 343.923 425.564 327.7C460.82 301.709 480.062 253.611 481.87 204.993Z" fill="white"/>
<path d="M250.051 503C347.2 503 425.955 487.275 425.955 467.878C425.955 448.48 347.2 432.755 250.051 432.755C152.903 432.755 74.1479 448.48 74.1479 467.878C74.1479 487.275 152.903 503 250.051 503Z" fill="#FE99A6"/>
<path opacity="0.5" d="M250.051 503C347.2 503 425.955 487.275 425.955 467.878C425.955 448.48 347.2 432.755 250.051 432.755C152.903 432.755 74.1479 448.48 74.1479 467.878C74.1479 487.275 152.903 503 250.051 503Z" fill="white"/>
<path d="M436.779 155.907H309.961C305.628 155.907 302.116 152.4 302.116 148.075V8.4818C302.116 4.15645 305.628 0.649414 309.961 0.649414H436.779C441.111 0.649414 444.623 4.15645 444.623 8.4818V148.062C444.636 152.4 441.111 155.907 436.779 155.907Z" fill="white" stroke="#263238" stroke-miterlimit="10" stroke-linecap="round" stroke-linejoin="round"/>
<path d="M444.636 16.6129H302.116V8.4818C302.116 4.15645 305.628 0.649414 309.961 0.649414H436.779C441.111 0.649414 444.623 4.15645 444.623 8.4818V16.6129H444.636Z" fill="#263238" stroke="#263238" stroke-miterlimit="10" stroke-linecap="round" stroke-linejoin="round"/>
<path d="M309.882 83.5454H367.229" stroke="#263238" stroke-miterlimit="10" stroke-linecap="round" stroke-linejoin="round"/>
<path d="M309.882 90.936H367.229" stroke="#263238" stroke-miterlimit="10" stroke-linecap="round" stroke-linejoin="round"/>
<path d="M309.882 98.3271H367.229" stroke="#263238" stroke-miterlimit="10" stroke-linecap="round" stroke-linejoin="round"/>
<path d="M309.882 105.718H367.229" stroke="#263238" stroke-miterlimit="10" stroke-linecap="round" stroke-linejoin="round"/>
<path d="M309.882 113.122H367.229" stroke="#263238" stroke-miterlimit="10" stroke-linecap="round" stroke-linejoin="round"/>
<path d="M309.882 120.512H367.229" stroke="#263238" stroke-miterlimit="10" stroke-linecap="round" stroke-linejoin="round"/>
<path d="M309.882 127.903H367.229" stroke="#263238" stroke-miterlimit="10" stroke-linecap="round" stroke-linejoin="round"/>
<path d="M309.882 135.294H367.229" stroke="#263238" stroke-miterlimit="10" stroke-linecap="round" stroke-linejoin="round"/>
<path d="M309.882 142.697H367.229" stroke="#263238" stroke-miterlimit="10" stroke-linecap="round" stroke-linejoin="round"/>
<path d="M377.312 83.5454H434.658" stroke="#263238" stroke-miterlimit="10" stroke-linecap="round" stroke-linejoin="round"/>
<path d="M377.312 90.936H434.658" stroke="#263238" stroke-miterlimit="10" stroke-linecap="round" stroke-linejoin="round"/>
<path d="M377.312 98.3271H434.658" stroke="#263238" stroke-miterlimit="10" stroke-linecap="round" stroke-linejoin="round"/>
<path d="M377.312 105.718H434.658" stroke="#263238" stroke-miterlimit="10" stroke-linecap="round" stroke-linejoin="round"/>
<path d="M377.312 113.122H434.658" stroke="#263238" stroke-miterlimit="10" stroke-linecap="round" stroke-linejoin="round"/>
<path d="M377.312 120.512H434.658" stroke="#263238" stroke-miterlimit="10" stroke-linecap="round" stroke-linejoin="round"/>
<path d="M377.312 127.903H434.658" stroke="#263238" stroke-miterlimit="10" stroke-linecap="round" stroke-linejoin="round"/>
<path d="M377.312 135.294H434.658" stroke="#263238" stroke-miterlimit="10" stroke-linecap="round" stroke-linejoin="round"/>
<path d="M377.312 142.697H434.658" stroke="#263238" stroke-miterlimit="10" stroke-linecap="round" stroke-linejoin="round"/>
<path d="M348.235 36.7457C348.534 35.9014 348.677 34.8233 348.677 34.031C348.677 30.6669 345.269 30.472 341.899 30.472H341.054V29.6797H355.703V30.472C351.891 30.472 350.551 32.888 349.315 36.4989L341.548 59.7623C340.95 61.4898 340.455 62.7757 338.634 62.7757H338.491L331.609 40.5515L325.182 59.7623C324.583 61.4898 324.089 62.7757 322.268 62.7757H322.125L312.133 30.472H308.621V29.6797H321.487V30.472H317.831L325.247 55.9565H325.546L331.14 38.9668L328.512 30.472H325V29.6797H337.866V30.472H334.211L341.626 55.9565H341.925L348.235 36.7457Z" fill="#FE99A6"/>
<path d="M435.074 22.3149H376.062V75.57H435.074V22.3149Z" fill="#FE99A6" stroke="#263238" stroke-width="2" stroke-miterlimit="10" stroke-linecap="round" stroke-linejoin="round"/>
<path d="M435.074 44.5781C433.474 44.6561 431.535 44.9028 429.181 45.4094C420.217 47.3578 417.875 60.2039 407.741 60.2039C398.764 60.2039 397.997 48.1371 385.13 46.5784C381.24 46.1108 378.287 46.8902 376.049 48.1891V75.5699H435.061V44.5781H435.074Z" fill="#263238" stroke="#263238" stroke-miterlimit="10" stroke-linecap="round" stroke-linejoin="round"/>
<path d="M395.655 34.5118C395.655 38.1617 392.689 41.1232 389.033 41.1232C385.377 41.1232 382.411 38.1617 382.411 34.5118C382.411 30.8619 385.377 27.9004 389.033 27.9004C392.689 27.9004 395.655 30.8489 395.655 34.5118Z" fill="white" stroke="#263238" stroke-miterlimit="10" stroke-linecap="round" stroke-linejoin="round"/>
<path d="M437.754 5.32568H306.396V10.3784H437.754V5.32568Z" fill="white" stroke="#263238" stroke-miterlimit="10" stroke-linecap="round" stroke-linejoin="round"/>
<path d="M429.571 186.886H372.706C368.049 186.886 364.276 190.653 364.276 195.303V225.671C364.276 230.322 368.049 234.088 372.706 234.088H374.476C372.706 238.011 369.311 243.96 363.847 247.506C363.847 247.506 375.386 246.701 387.407 234.088H429.571C434.229 234.088 438.002 230.322 438.002 225.671V195.303C437.989 190.653 434.216 186.886 429.571 186.886Z" fill="#263238" stroke="#263238" stroke-miterlimit="10" stroke-linecap="round" stroke-linejoin="round"/>
<path d="M391.349 209.409C391.349 207.019 389.411 205.084 387.017 205.084C384.623 205.084 382.685 207.019 382.685 209.409C382.685 211.799 384.623 213.735 387.017 213.735C389.411 213.735 391.349 211.799 391.349 209.409Z" fill="#FE99A6" stroke="#263238" stroke-miterlimit="10" stroke-linecap="round" stroke-linejoin="round"/>
<path d="M406.102 209.409C406.102 207.019 404.164 205.084 401.77 205.084C399.376 205.084 397.438 207.019 397.438 209.409C397.438 211.799 399.376 213.735 401.77 213.735C404.15 213.735 406.102 211.799 406.102 209.409Z" fill="#FE99A6" stroke="#263238" stroke-miterlimit="10" stroke-linecap="round" stroke-linejoin="round"/>
<path d="M420.842 209.409C420.842 207.019 418.903 205.084 416.509 205.084C414.116 205.084 412.177 207.019 412.177 209.409C412.177 211.799 414.116 213.735 416.509 213.735C418.903 213.735 420.842 211.799 420.842 209.409Z" fill="#FE99A6" stroke="#263238" stroke-miterlimit="10" stroke-linecap="round" stroke-linejoin="round"/>
<path d="M218.88 92.248H108.493V27.4588C108.493 22.8217 112.253 19.0679 116.897 19.0679H210.463C215.107 19.0679 218.867 22.8217 218.867 27.4588V92.248H218.88Z" fill="#FE99A6" stroke="#263238" stroke-miterlimit="10" stroke-linecap="round" stroke-linejoin="round"/>
<path d="M218.88 81.8311H108.493V92.2483H218.88V81.8311Z" fill="#263238" stroke="#263238" stroke-miterlimit="10" stroke-linecap="round" stroke-linejoin="round"/>
<path d="M213.819 85.3896H113.541V88.6889H213.819V85.3896Z" fill="white" stroke="#263238" stroke-miterlimit="10" stroke-linecap="round" stroke-linejoin="round"/>
<path d="M163.68 67.5298C172.101 67.5298 178.927 60.7141 178.927 52.3066C178.927 43.8991 172.101 37.0835 163.68 37.0835C155.259 37.0835 148.433 43.8991 148.433 52.3066C148.433 60.7141 155.259 67.5298 163.68 67.5298Z" fill="#263238" stroke="#263238" stroke-miterlimit="10" stroke-linecap="round" stroke-linejoin="round"/>
<path d="M156.811 42.8247L173.255 52.3067L156.811 61.7887V42.8247Z" fill="white" stroke="#263238" stroke-miterlimit="10" stroke-linecap="round" stroke-linejoin="round"/>
<path d="M171.134 166.103H66.3548C64.3383 166.103 62.686 164.467 62.686 162.441V122.564C62.686 120.551 64.3253 118.901 66.3548 118.901H171.134C173.151 118.901 174.803 120.538 174.803 122.564V162.441C174.79 164.467 173.151 166.103 171.134 166.103Z" fill="#263238" stroke="#263238" stroke-miterlimit="10" stroke-linecap="round" stroke-linejoin="round"/>
<path d="M76.0342 125.344L76.5806 126.253C74.1087 127.643 71.806 130.046 71.806 132.89C71.806 135.358 73.5623 136.813 75.3056 136.813C75.6699 136.813 75.9041 136.631 75.9041 136.268C75.9041 135.969 75.7219 135.787 75.3576 135.722C74.512 135.54 73.7835 134.761 73.7835 133.436C73.7835 131.682 75.2276 130.539 76.9839 130.539C78.8572 130.539 80.2493 132.046 80.2493 133.917C80.2493 136.268 78.3108 137.956 75.9561 137.956C72.9379 137.956 70.7002 136.021 70.7002 132.89C70.7262 129.565 73.2631 126.915 76.0342 125.344ZM87.2094 125.344L87.7558 126.253C85.284 127.643 82.9813 130.046 82.9813 132.89C82.9813 135.358 84.7376 136.813 86.4809 136.813C86.8452 136.813 87.0793 136.631 87.0793 136.268C87.0793 135.969 86.8972 135.787 86.5329 135.722C85.6873 135.54 84.9588 134.761 84.9588 133.436C84.9588 131.682 86.4028 130.539 88.1591 130.539C90.0325 130.539 91.4246 132.046 91.4246 133.917C91.4246 136.268 89.4861 137.956 87.1314 137.956C84.1131 137.956 81.8755 136.021 81.8755 132.89C81.9015 129.565 84.4384 126.915 87.2094 125.344Z" fill="#FE99A6"/>
<path d="M97.916 134.956H161.702" stroke="white" stroke-miterlimit="10" stroke-linecap="round" stroke-linejoin="round"/>
<path d="M97.916 140.424H161.702" stroke="white" stroke-miterlimit="10" stroke-linecap="round" stroke-linejoin="round"/>
<path d="M97.916 145.906H161.702" stroke="white" stroke-miterlimit="10" stroke-linecap="round" stroke-linejoin="round"/>
<path d="M97.916 151.374H161.702" stroke="white" stroke-miterlimit="10" stroke-linecap="round" stroke-linejoin="round"/>
<path d="M150.417 239.26C163.585 237.114 172.517 224.717 170.368 211.57C168.218 198.423 155.801 189.505 142.633 191.651C129.466 193.797 120.534 206.194 122.683 219.341C124.833 232.488 137.25 241.406 150.417 239.26Z" fill="#263238" stroke="#263238" stroke-miterlimit="10" stroke-linecap="round" stroke-linejoin="round"/>
<path d="M161.839 228.892C169.268 220.445 168.432 207.585 159.972 200.168C151.512 192.752 138.632 193.586 131.203 202.033C123.775 210.479 124.611 223.339 133.071 230.756C141.531 238.173 154.411 237.338 161.839 228.892Z" fill="white" stroke="#263238" stroke-miterlimit="10" stroke-linecap="round" stroke-linejoin="round"/>
<path d="M146.534 200.745V215.462H156.512" stroke="#263238" stroke-width="2" stroke-miterlimit="10" stroke-linecap="round" stroke-linejoin="round"/>
<path d="M297.641 215.514C297.641 215.514 311.496 245.038 311.496 246.596C311.496 248.155 299.202 254.831 296.86 256.234C294.531 257.637 291.253 259.027 291.253 259.027L292.658 272.704C292.658 272.704 313.825 267.885 322.697 263.066C331.57 258.248 331.258 252.805 329.228 244.726C327.199 236.647 313.512 205.408 313.512 205.408L297.641 215.514Z" fill="white"/>
<path opacity="0.5" d="M322.697 263.066C331.57 258.248 331.258 252.805 329.228 244.726C327.199 236.647 313.513 205.408 313.513 205.408L311.301 206.811L310.598 208.149C310.598 208.149 323.361 239.413 324.128 249.831C324.649 256.832 310.533 265.56 301.192 270.548C308.114 268.704 317.506 265.885 322.697 263.066Z" fill="#FE99A6"/>
<path d="M297.641 215.514C297.641 215.514 311.496 245.038 311.496 246.596C311.496 248.155 299.202 254.831 296.86 256.234C294.531 257.637 291.253 259.027 291.253 259.027L292.658 272.704C292.658 272.704 313.825 267.885 322.697 263.066C331.57 258.248 331.258 252.805 329.228 244.726C327.199 236.647 313.512 205.408 313.512 205.408L297.641 215.514Z" stroke="#263238" stroke-miterlimit="10" stroke-linecap="round" stroke-linejoin="round"/>
<path d="M197.726 208.993C197.726 208.993 187.605 245.973 187.293 252.506C186.98 259.027 207.366 271.925 208.147 272.704C208.928 273.484 206.989 250.233 206.989 250.233L213.897 216.449L197.726 208.993Z" fill="white"/>
<path opacity="0.5" d="M202.358 212.02L202.137 211.019L197.726 208.993C197.726 208.993 187.605 245.973 187.293 252.506C186.98 259.027 207.366 271.925 208.147 272.704C208.459 273.016 208.342 269.535 208.082 265.236C202.02 260.105 193.316 252.883 192.301 249.844" fill="#FE99A6"/>
<path d="M197.726 208.993C197.726 208.993 187.605 245.973 187.293 252.506C186.98 259.027 207.366 271.925 208.147 272.704C208.928 273.484 206.989 250.233 206.989 250.233L213.897 216.449L197.726 208.993Z" stroke="#263238" stroke-miterlimit="10" stroke-linecap="round" stroke-linejoin="round"/>
<path d="M245.185 171.845C245.185 171.845 241.296 174.637 233.672 174.949C226.048 175.261 225.697 169.78 216.239 169.818C204.791 169.87 190.402 206.032 190.402 206.032C190.402 206.032 197.557 213.02 204.569 215.981C211.569 218.93 216.707 219.553 216.707 219.553L217.8 243.323H294.999L295.936 219.553L320.056 203.863C320.056 203.863 308.23 182.73 302.467 174.806C296.704 166.883 287.063 169.831 284.097 171.858C281.131 173.884 272.428 174.339 269.149 173.884C265.871 173.429 256.699 170.468 256.699 170.468C256.699 170.468 251.729 166.259 245.185 171.845Z" fill="#FE99A6" stroke="#263238" stroke-miterlimit="10" stroke-linecap="round" stroke-linejoin="round"/>
<path d="M217.488 180.236L217.176 219.709" stroke="#263238" stroke-width="0.5" stroke-miterlimit="10" stroke-linecap="round" stroke-linejoin="round"/>
<path d="M220.285 183.821C220.285 183.821 221.378 203.097 225.424 213.812" stroke="#263238" stroke-width="0.5" stroke-miterlimit="10" stroke-linecap="round" stroke-linejoin="round"/>
<path d="M226.205 215.358C226.205 215.358 228.234 221.112 229.47 222.969" stroke="#263238" stroke-width="0.5" stroke-miterlimit="10" stroke-linecap="round" stroke-linejoin="round"/>
<path d="M222.783 181.639C222.783 181.639 225.111 193.134 229.014 202.148" stroke="#263238" stroke-width="0.5" stroke-miterlimit="10" stroke-linecap="round" stroke-linejoin="round"/>
<path d="M289.861 185.055C289.861 185.055 286.127 200.278 282.861 207.123" stroke="#263238" stroke-width="0.5" stroke-miterlimit="10" stroke-linecap="round" stroke-linejoin="round"/>
<path d="M295.936 219.553L295.78 188.782" stroke="#263238" stroke-width="0.5" stroke-miterlimit="10" stroke-linecap="round" stroke-linejoin="round"/>
<path d="M294.219 189.406C294.219 189.406 291.421 208.824 284.565 219.086" stroke="#263238" stroke-width="0.5" stroke-miterlimit="10" stroke-linecap="round" stroke-linejoin="round"/>
<path d="M290.797 215.202C290.797 215.202 287.688 221.112 285.502 224.217" stroke="#263238" stroke-width="0.5" stroke-miterlimit="10" stroke-linecap="round" stroke-linejoin="round"/>
<path d="M240.827 174.183C240.827 174.183 243 187.548 246.122 194.381C249.231 201.213 254.682 202.616 259.353 200.602C264.023 198.576 267.445 188.639 267.133 175.897" stroke="#263238" stroke-width="0.5" stroke-miterlimit="10" stroke-linecap="round" stroke-linejoin="round"/>
<path d="M229.782 146.204C229.782 146.204 226.829 141.074 224.487 143.723C222.159 146.36 226.361 152.426 228.689 154.439C231.018 156.466 232.735 155.219 232.579 153.036C232.423 150.867 229.782 146.204 229.782 146.204Z" fill="#FE99A6" stroke="#263238" stroke-miterlimit="10" stroke-linecap="round" stroke-linejoin="round"/>
<path opacity="0.5" d="M229.782 146.204C229.782 146.204 226.829 141.074 224.487 143.723C222.159 146.36 226.361 152.426 228.689 154.439C231.018 156.466 232.735 155.219 232.579 153.036C232.423 150.867 229.782 146.204 229.782 146.204Z" fill="white"/>
<path d="M229.782 146.204C229.782 146.204 226.829 141.074 224.487 143.723C222.159 146.36 226.361 152.426 228.689 154.439C231.018 156.466 232.735 155.219 232.579 153.036C232.423 150.867 229.782 146.204 229.782 146.204Z" stroke="#263238" stroke-miterlimit="10" stroke-linecap="round" stroke-linejoin="round"/>
<path d="M276.89 146.204C276.89 146.204 279.844 141.074 282.185 143.723C284.514 146.36 280.312 152.426 277.983 154.439C275.654 156.466 273.937 155.219 274.093 153.036C274.249 150.867 276.89 146.204 276.89 146.204Z" fill="#FE99A6" stroke="#263238" stroke-miterlimit="10" stroke-linecap="round" stroke-linejoin="round"/>
<path opacity="0.5" d="M276.89 146.204C276.89 146.204 279.844 141.074 282.185 143.723C284.514 146.36 280.312 152.426 277.983 154.439C275.654 156.466 273.937 155.219 274.093 153.036C274.249 150.867 276.89 146.204 276.89 146.204Z" fill="white"/>
<path d="M276.89 146.204C276.89 146.204 279.844 141.074 282.185 143.723C284.514 146.36 280.312 152.426 277.983 154.439C275.654 156.466 273.937 155.219 274.093 153.036C274.249 150.867 276.89 146.204 276.89 146.204Z" stroke="#263238" stroke-miterlimit="10" stroke-linecap="round" stroke-linejoin="round"/>
<path d="M243.793 170.767C243.793 170.767 246.591 183.353 249.401 190.341C252.198 197.329 257.493 197.329 259.678 192.822C261.851 188.315 263.256 171.533 263.256 171.533C263.256 171.533 248.62 173.559 243.793 170.767Z" fill="white" stroke="#263238" stroke-miterlimit="10" stroke-linecap="round" stroke-linejoin="round"/>
<path d="M230.095 147.919C230.095 147.919 234.141 162.219 241.764 170.61C249.388 179.001 252.198 181.028 256.244 180.404C260.29 179.781 264.648 174.494 270.724 163.466C276.799 152.439 277.255 144.048 277.723 143.268C278.191 142.489 276.474 126.954 267.758 120.265C259.041 113.589 249.388 110.627 240.984 117.94C232.579 125.227 227.298 137.203 230.095 147.919Z" fill="white"/>
<path opacity="0.5" d="M267.757 120.252C259.041 113.576 249.388 110.614 240.984 117.927C232.579 125.227 227.284 137.19 230.095 147.919C230.095 147.919 230.875 150.672 232.384 154.465C232.384 153.959 232.449 153.491 232.579 153.049C234.44 147.165 239.93 135.774 258.404 140.996C273.065 145.139 271.27 158.011 269.904 164.895C270.164 164.428 270.437 163.96 270.698 163.467C276.773 152.439 277.228 144.048 277.697 143.269C278.191 142.476 276.474 126.942 267.757 120.252Z" fill="#FE99A6"/>
<path d="M230.095 147.919C230.095 147.919 234.141 162.219 241.764 170.61C249.388 179.001 252.198 181.028 256.244 180.404C260.29 179.781 264.648 174.494 270.724 163.466C276.799 152.439 277.255 144.048 277.723 143.268C278.191 142.489 276.474 126.954 267.758 120.265C259.041 113.589 249.388 110.627 240.984 117.94C232.579 125.227 227.298 137.203 230.095 147.919Z" stroke="#263238" stroke-miterlimit="10" stroke-linecap="round" stroke-linejoin="round"/>
<path d="M256.244 155.375C256.244 155.375 255.307 161.44 255.463 164.545C255.619 167.649 256.556 168.584 255.151 168.896C253.746 169.208 252.198 167.026 252.198 167.026" stroke="#263238" stroke-miterlimit="10" stroke-linecap="round" stroke-linejoin="round"/>
<path d="M240.671 157.868C240.671 157.868 243.781 160.193 246.903 158.024" stroke="#263238" stroke-miterlimit="10" stroke-linecap="round" stroke-linejoin="round"/>
<path d="M260.446 157.868C260.446 157.868 263.555 160.193 266.677 158.024" stroke="#263238" stroke-miterlimit="10" stroke-linecap="round" stroke-linejoin="round"/>
<path d="M250.611 152.634C250.611 152.634 247.657 145.334 237.848 148.75" stroke="#263238" stroke-miterlimit="10" stroke-linecap="round" stroke-linejoin="round"/>
<path d="M258.768 151.738C258.768 151.738 261.252 144.594 270.125 148.789" stroke="#263238" stroke-miterlimit="10" stroke-linecap="round" stroke-linejoin="round"/>
<path d="M252.51 158.414C252.51 162.402 247.905 165.636 242.233 165.636C236.56 165.636 231.955 162.402 231.955 158.414C231.955 154.426 236.248 152.738 241.92 152.738C247.593 152.738 252.51 154.413 252.51 158.414Z" stroke="#263238" stroke-miterlimit="10" stroke-linecap="round" stroke-linejoin="round"/>
<path d="M276.162 158.414C276.162 162.402 271.556 165.636 265.884 165.636C260.212 165.636 255.606 162.402 255.606 158.414C255.606 154.426 259.9 152.738 265.572 152.738C271.257 152.738 276.162 154.413 276.162 158.414Z" stroke="#263238" stroke-miterlimit="10" stroke-linecap="round" stroke-linejoin="round"/>
<path d="M144.998 283.005L144.361 440.458C144.361 441.497 145.193 442.328 146.234 442.328C147.236 442.328 148.069 441.536 148.108 440.523L152.596 283.213L144.998 283.005Z" fill="white" stroke="#263238" stroke-miterlimit="10" stroke-linecap="round" stroke-linejoin="round"/>
<path d="M134.369 319.816L133.732 482.607C133.732 483.646 134.565 484.478 135.605 484.478C136.607 484.478 137.44 483.685 137.479 482.672L141.967 320.024L134.369 319.816Z" fill="white" stroke="#263238" stroke-miterlimit="10" stroke-linecap="round" stroke-linejoin="round"/>
<path d="M363.027 283.005L363.664 440.458C363.664 441.497 362.832 442.328 361.791 442.328C360.789 442.328 359.957 441.536 359.918 440.523L355.429 283.213L363.027 283.005Z" fill="white" stroke="#263238" stroke-miterlimit="10" stroke-linecap="round" stroke-linejoin="round"/>
<path d="M373.656 319.816L374.293 482.607C374.293 483.646 373.461 484.478 372.42 484.478C371.418 484.478 370.585 483.685 370.546 482.672L366.058 320.024L373.656 319.816Z" fill="white" stroke="#263238" stroke-miterlimit="10" stroke-linecap="round" stroke-linejoin="round"/>
<path d="M208.303 326.583L207.9 471.073C207.9 471.917 208.433 472.619 209.084 472.619C209.721 472.619 210.255 471.969 210.268 471.138L213.13 326.765L208.303 326.583Z" fill="white" stroke="#263238" stroke-miterlimit="10" stroke-linecap="round" stroke-linejoin="round"/>
<path d="M299.904 321.933L300.242 448.031C300.242 448.745 299.8 449.329 299.241 449.329C298.694 449.329 298.252 448.771 298.239 448.082L295.832 322.076L299.904 321.933Z" fill="white" stroke="#263238" stroke-miterlimit="10" stroke-linecap="round" stroke-linejoin="round"/>
<path d="M206.885 321.933L207.224 448.031C207.224 448.745 206.781 449.329 206.222 449.329C205.676 449.329 205.233 448.771 205.22 448.082L202.813 322.076L206.885 321.933Z" fill="white" stroke="#263238" stroke-miterlimit="10" stroke-linecap="round" stroke-linejoin="round"/>
<path d="M297.276 326.583L297.68 471.073C297.68 471.917 297.146 472.619 296.496 472.619C295.858 472.619 295.325 471.969 295.312 471.138L292.45 326.765L297.276 326.583Z" fill="white" stroke="#263238" stroke-miterlimit="10" stroke-linecap="round" stroke-linejoin="round"/>
<path d="M252.146 336.701C284.119 336.701 310.039 330.787 310.039 323.492C310.039 316.196 284.119 310.282 252.146 310.282C220.172 310.282 194.253 316.196 194.253 323.492C194.253 330.787 220.172 336.701 252.146 336.701Z" fill="white" stroke="#263238" stroke-miterlimit="10" stroke-linecap="round" stroke-linejoin="round"/>
<path d="M223.967 435.626C223.967 435.626 220.936 439.951 223.095 442.121C225.268 444.29 227.427 443.419 227.219 445.589C226.998 447.758 223.537 455.11 220.493 462.903C217.449 470.696 223.746 478.49 229.6 476.321C235.454 474.151 234.804 452.512 235.675 448.615C236.547 444.718 237.198 444.069 236.976 440.393C236.755 436.717 236.547 432.82 233.724 432.379C230.901 431.95 225.268 434.119 223.967 435.626Z" fill="white" stroke="#263238" stroke-miterlimit="10" stroke-linecap="round" stroke-linejoin="round"/>
<path d="M233.269 470.359C229.366 468.878 223.382 469.19 219.999 469.528C221.131 474.424 225.463 477.867 229.6 476.334C231.317 475.697 232.462 473.385 233.269 470.359Z" fill="#FE99A6" stroke="#263238" stroke-miterlimit="10" stroke-linecap="round" stroke-linejoin="round"/>
<path d="M217.241 426.105C217.241 426.105 223.524 436.717 225.268 439.523C226.998 442.341 232.852 441.471 233.503 437.574C234.153 433.678 231.122 422.858 231.122 422.858L218.112 426.105H217.241Z" fill="white" stroke="#263238" stroke-miterlimit="10" stroke-linecap="round" stroke-linejoin="round"/>
<path d="M202.28 409.219C202.28 409.219 200.549 412.038 201.408 413.986C202.28 415.934 204.66 421.559 206.183 424.377C207.705 427.196 214.639 428.924 222.666 427.625C230.693 426.326 235.246 422.65 235.454 419.403C235.662 416.155 234.153 411.83 233.073 406.634C231.994 401.439 229.171 401.66 225.268 401.66C221.365 401.66 205.532 406.193 202.28 409.219Z" fill="#FE99A6" stroke="#263238" stroke-miterlimit="10" stroke-linecap="round" stroke-linejoin="round"/>
<path d="M225.697 345.573C225.814 340.248 228.897 337.624 229.131 333.974C229.587 326.752 228.507 321.621 227.948 319.543L222.015 311.438C204.947 311.659 192.717 311.945 192.522 312.01C191.872 312.23 191.443 315.906 191 318.933C191 318.933 183.754 319.855 185.055 339.988C185.237 342.806 192.548 375.266 193.069 378.942C196.321 401.569 203.567 412.895 203.567 412.895C203.567 412.895 204.218 415.714 212.674 415.064C221.13 414.415 229.587 408.791 229.587 408.791C229.587 408.791 225.268 364.836 225.697 345.573Z" fill="#263238" stroke="#263238" stroke-miterlimit="10" stroke-linecap="round" stroke-linejoin="round"/>
<path d="M189.83 315.646C189.83 315.646 180.879 316.984 175.389 323.206C169.899 329.415 174.556 333.584 185.224 332.48C195.892 331.376 208.199 320.452 208.72 319.881C209.24 319.296 197.583 311.944 189.83 315.646Z" fill="white" stroke="#263238" stroke-miterlimit="10" stroke-linecap="round" stroke-linejoin="round"/>
<path d="M205.753 319.595C205.753 319.595 215.289 320.024 222.666 322.193C230.042 324.362 243.052 328.688 246.083 328.688C249.114 328.688 248.256 317.426 248.256 315.27C248.256 313.101 209.227 311.802 204.452 311.802C199.678 311.802 205.753 319.595 205.753 319.595Z" fill="white" stroke="#263238" stroke-miterlimit="10" stroke-linecap="round" stroke-linejoin="round"/>
<path d="M248.243 315.27C248.243 315.27 244.769 316.997 243.468 323.492C242.167 329.986 240.437 333.454 243.039 335.182C245.641 336.91 256.92 338.208 258.65 336.481C260.381 334.753 265.155 326.09 266.027 320.465C266.898 314.828 248.243 315.27 248.243 315.27Z" fill="#FE99A6" stroke="#263238" stroke-miterlimit="10" stroke-linecap="round" stroke-linejoin="round"/>
<path d="M262.995 317.426C262.995 317.426 259.522 321.323 258.221 325.219C256.92 329.116 256.048 334.312 256.048 334.312C256.048 334.312 261.252 335.61 268.186 338.637C275.12 341.663 286.829 343.833 298.108 346.43C309.388 349.028 312.419 351.626 316.322 351.626C320.225 351.626 324.999 348.6 331.062 341.235C337.137 333.87 331.934 318.283 325.858 313.529C319.783 308.762 287.258 304.865 282.926 306.164C278.594 307.463 262.995 317.426 262.995 317.426Z" fill="#263238" stroke="#263238" stroke-miterlimit="10" stroke-linecap="round" stroke-linejoin="round"/>
<path d="M181.633 332.649C180.762 328.051 178.186 324.115 176.56 321.998C176.156 322.375 175.766 322.777 175.389 323.193C170.549 328.661 173.58 332.545 181.633 332.649Z" fill="#FE99A6" stroke="#263238" stroke-miterlimit="10" stroke-linecap="round" stroke-linejoin="round"/>
<path d="M225.034 336.078C225.034 336.078 220.559 383.878 211.426 391.333" stroke="white" stroke-width="0.5" stroke-miterlimit="10" stroke-linecap="round" stroke-linejoin="round"/>
<path d="M221.872 381.462C221.872 381.462 218.334 397.101 209.006 403.244" stroke="white" stroke-width="0.5" stroke-miterlimit="10" stroke-linecap="round" stroke-linejoin="round"/>
<path d="M279.466 327.388C279.466 327.388 265.585 328.258 274.691 334.311C283.798 340.377 300.281 344.274 300.281 344.274" stroke="white" stroke-width="0.5" stroke-miterlimit="10" stroke-linecap="round" stroke-linejoin="round"/>
<path d="M380.252 311.009L375.568 306.801L364.744 283.459C363.756 281.316 361.518 279.939 359.059 279.939H148.823C146.364 279.939 144.127 281.316 143.138 283.459L129.647 312.568L127.422 311.75V318.413L127.526 318.322C127.735 320.037 129.244 321.491 131.26 321.491H376.609C378.73 321.491 380.278 319.881 380.356 318.049L380.252 311.009Z" fill="#263238" stroke="#263238" stroke-miterlimit="10" stroke-linecap="round" stroke-linejoin="round"/>
<path d="M376.609 315.374H131.273C128.554 315.374 126.733 312.724 127.826 310.36L143.138 277.329C144.127 275.185 146.364 273.809 148.823 273.809H359.059C361.518 273.809 363.755 275.185 364.744 277.329L380.056 310.373C381.149 312.724 379.328 315.374 376.609 315.374Z" fill="white" stroke="#263238" stroke-miterlimit="10" stroke-linecap="round" stroke-linejoin="round"/>
<path opacity="0.5" d="M143.698 293.188C143.698 293.188 138.143 297.007 141.616 298.384C145.09 299.774 185.016 298.735 189.882 297.345C194.747 295.955 200.303 283.135 200.303 281.057C200.303 278.978 193.303 277.485 190.727 277.368C188.152 277.238 154.118 279.329 154.118 279.329L143.698 293.188Z" fill="#FE99A6"/>
<path opacity="0.5" d="M342.303 299.774C350.163 299.774 356.535 297.133 356.535 293.877C356.535 290.62 350.163 287.979 342.303 287.979C334.442 287.979 328.07 290.62 328.07 293.877C328.07 297.133 334.442 299.774 342.303 299.774Z" fill="#FE99A6"/>
<path opacity="0.5" d="M251.677 307.061C279.864 307.061 302.714 302.792 302.714 297.527C302.714 292.261 279.864 287.993 251.677 287.993C223.491 287.993 200.641 292.261 200.641 297.527C200.641 302.792 223.491 307.061 251.677 307.061Z" fill="#FE99A6"/>
<path d="M331.882 270.678C331.882 270.678 330.945 266.95 327.836 268.197C324.727 269.444 325.039 277.679 325.663 282.342C326.288 287.005 330.49 284.823 330.49 284.823V282.03C330.49 282.03 328.929 283.277 328.161 281.563C327.381 279.848 327.537 271.301 328.317 271.457C329.098 271.613 330.646 274.25 330.646 274.25C330.646 274.25 331.101 273.951 331.882 270.678Z" fill="#FE99A6" stroke="#263238" stroke-miterlimit="10" stroke-linecap="round" stroke-linejoin="round"/>
<path d="M329.644 271.302V291.721C329.644 294.123 335.173 296.059 342.003 296.059C348.833 296.059 354.362 294.11 354.362 291.721V271.302H329.644Z" fill="#FE99A6" stroke="#263238" stroke-miterlimit="10" stroke-linecap="round" stroke-linejoin="round"/>
<path d="M354.35 271.302C354.35 273.38 348.821 275.055 341.991 275.055C335.16 275.055 329.631 273.38 329.631 271.302C329.631 269.223 335.16 267.548 341.991 267.548C348.821 267.548 354.35 269.236 354.35 271.302Z" fill="white" stroke="#263238" stroke-miterlimit="10" stroke-linecap="round" stroke-linejoin="round"/>
<path d="M352.736 271.302C352.736 273.107 347.923 274.562 341.99 274.562C336.058 274.562 331.257 273.107 331.257 271.302C331.257 269.496 336.071 268.042 341.99 268.042C347.91 268.042 352.736 269.496 352.736 271.302Z" fill="white" stroke="#263238" stroke-miterlimit="10" stroke-linecap="round" stroke-linejoin="round"/>
<path d="M333.716 273.38C335.681 274.107 338.66 274.562 342.003 274.562C345.347 274.562 348.313 274.094 350.291 273.38C348.326 272.652 345.347 272.198 342.003 272.198C338.66 272.198 335.694 272.652 333.716 273.38Z" fill="#263238" stroke="#263238" stroke-miterlimit="10" stroke-linecap="round" stroke-linejoin="round"/>
<path d="M142.149 280.628L142.305 287.616L189.465 288.084V280.004L142.149 280.628Z" fill="white" stroke="#263238" stroke-miterlimit="10" stroke-linecap="round" stroke-linejoin="round"/>
<path d="M189.465 288.084L196.321 273.328V268.977L189.153 281.408L189.465 288.084Z" fill="white" stroke="#263238" stroke-miterlimit="10" stroke-linecap="round" stroke-linejoin="round"/>
<path d="M142.149 287.006L142.305 293.994L189.465 294.462V286.382L142.149 287.006Z" fill="white" stroke="#263238" stroke-miterlimit="10" stroke-linecap="round" stroke-linejoin="round"/>
<path d="M189.465 294.461L196.321 279.693V275.341L189.153 287.772L189.465 294.461Z" fill="white" stroke="#263238" stroke-miterlimit="10" stroke-linecap="round" stroke-linejoin="round"/>
<path d="M160.363 262.911C160.363 262.911 161.455 260.729 159.894 259.807C158.333 258.871 156.629 261.053 155.692 261.833C154.755 262.612 135.15 275.51 134.525 277.524C133.901 279.55 134.525 284.044 138.728 284.512C142.93 284.979 146.663 282.187 148.537 281.719C150.41 281.251 151.178 281.096 151.178 281.096L164.096 263.69L160.363 262.911Z" fill="white" stroke="#263238" stroke-miterlimit="10" stroke-linecap="round" stroke-linejoin="round"/>
<path d="M138.728 284.511C142.93 284.979 146.663 282.186 148.537 281.719C150.41 281.251 151.178 281.095 151.178 281.095L151.646 280.459L139.508 277.978C139.508 277.978 137.336 275.809 134.525 277.51C133.901 279.537 134.525 284.044 138.728 284.511Z" fill="white" stroke="#263238" stroke-miterlimit="10" stroke-linecap="round" stroke-linejoin="round"/>
<path d="M139.508 277.991C139.508 277.991 164.565 277.991 175.935 277.991C187.306 277.991 190.727 277.368 190.727 277.368L197.726 262.911C197.726 262.911 175.623 264.314 168.78 263.846C161.937 263.379 160.376 262.911 160.376 262.911L139.508 277.991Z" fill="white" stroke="#263238" stroke-miterlimit="10" stroke-linecap="round" stroke-linejoin="round"/>
<path d="M139.508 277.991L140.133 280.784C140.133 280.784 169.704 280.94 177.483 280.94C185.263 280.94 191.183 281.251 191.183 281.251L190.714 277.368L139.508 277.991Z" fill="white" stroke="#263238" stroke-miterlimit="10" stroke-linecap="round" stroke-linejoin="round"/>
<path d="M191.182 281.252L197.726 266.327V262.911L190.714 277.368L191.182 281.252Z" fill="white" stroke="#263238" stroke-miterlimit="10" stroke-linecap="round" stroke-linejoin="round"/>
<path d="M296.248 298.709H207.067C206.235 298.709 205.571 298.033 205.571 297.215C205.571 296.384 206.248 295.721 207.067 295.721H296.248C297.081 295.721 297.745 296.397 297.745 297.215C297.745 298.046 297.081 298.709 296.248 298.709Z" fill="white" stroke="#263238" stroke-miterlimit="10" stroke-linecap="round" stroke-linejoin="round"/>
<path d="M297.003 295.708H206.3C205.597 295.708 205.012 295.176 204.96 294.474L200.029 235.309C199.964 234.53 200.588 233.854 201.369 233.854H301.947C302.727 233.854 303.352 234.53 303.287 235.309L298.356 294.474C298.291 295.163 297.705 295.708 297.003 295.708Z" fill="white" stroke="#263238" stroke-miterlimit="10" stroke-linecap="round" stroke-linejoin="round"/>
<path d="M260.211 265.794C260.211 269.327 256.374 272.185 251.651 272.185C246.916 272.185 243.091 269.327 243.091 265.794C243.091 262.261 246.929 259.404 251.651 259.404C256.387 259.417 260.211 262.274 260.211 265.794Z" fill="white" stroke="#263238" stroke-miterlimit="10" stroke-linecap="round" stroke-linejoin="round"/>
<path d="M348.847 219.553C350.226 218.384 351.24 217.007 351.618 215.215C351.917 213.799 351.852 212.526 351.527 211.37" stroke="#263238" stroke-miterlimit="10" stroke-linecap="round" stroke-linejoin="round"/>
<path d="M338.465 265.898C338.465 265.898 347.116 260.741 344.293 254.766C341.457 248.778 331.934 244.908 331.934 235.646C331.934 227.671 340.429 224.723 345.958 221.527" stroke="#263238" stroke-miterlimit="10" stroke-linecap="round" stroke-linejoin="round"/>
<path d="M346.466 265.729C346.466 265.729 351.293 262.521 351.293 257.416C351.293 254 347.637 251.766 342.797 246.285" stroke="#263238" stroke-miterlimit="10" stroke-linecap="round" stroke-linejoin="round"/>
<path d="M340.13 242.973C340.13 242.973 336.969 240.479 339.298 235.829" stroke="#263238" stroke-miterlimit="10" stroke-linecap="round" stroke-linejoin="round"/>
<path d="M266.886 106.9C268.434 106.575 271.751 105.302 274.002 100.119C274.145 99.7946 273.989 99.4049 273.664 99.262C273.326 99.1192 272.948 99.275 272.805 99.5998C270.75 104.341 267.796 105.393 266.587 105.627C268.733 102.964 270.008 99.7296 270.008 96.2356C270.008 87.2212 261.643 79.9214 251.326 79.9214C241.01 79.9214 232.644 87.2212 232.644 96.2356C232.644 99.5738 233.802 102.691 235.78 105.276C233.815 105.172 230.498 106.003 226.296 110.9C226.062 111.173 226.088 111.576 226.361 111.809C226.478 111.913 226.634 111.965 226.79 111.965C226.972 111.965 227.154 111.887 227.284 111.744C232.657 105.497 236.209 106.523 236.925 106.835C235.585 107.588 234.427 108.393 233.516 109.212C227.519 114.602 223.863 124.747 224.331 133.293C224.8 141.84 230.251 148.828 230.251 148.828C230.251 148.828 236.326 144.944 240.84 137.021C243.169 132.917 244.925 129.124 246.07 126.396C246.07 130.202 246.565 134.8 248.568 138.06C253.057 145.373 259.418 146.581 263.165 146.581C264.999 146.581 266.196 146.295 266.222 146.282C266.404 146.23 266.548 146.113 266.626 145.958C271.647 147.023 276.643 146.932 277.411 145.867C278.66 144.152 280.416 138.853 280.988 132.345C281.964 121.499 275.004 111.926 266.886 106.9ZM249.674 137.411C247.15 133.293 247.228 126.578 247.527 122.72C247.632 122.447 247.684 122.279 247.684 122.279C247.684 122.279 247.384 134.501 258.273 142.632C259.809 143.775 261.851 144.659 264.037 145.321C260.849 145.542 254.279 144.931 249.674 137.411Z" fill="#263238"/>
<path d="M249.882 117.005C249.882 117.005 248.815 124.876 258.833 132.605C268.85 140.346 278.334 137.268 278.334 137.268" stroke="white" stroke-width="0.5" stroke-miterlimit="10" stroke-linecap="round" stroke-linejoin="round"/>
<path d="M251.352 114.342C251.352 114.342 261.903 129.682 276.474 125.682" stroke="white" stroke-width="0.5" stroke-miterlimit="10" stroke-linecap="round" stroke-linejoin="round"/>
<path d="M246.148 109.264C246.148 109.264 241.205 106.328 235.597 110.069C229.99 113.81 227.18 122.603 227.18 122.603" stroke="white" stroke-width="0.5" stroke-miterlimit="10" stroke-linecap="round" stroke-linejoin="round"/>
<path d="M246.409 113.537C246.409 113.537 241.868 112.342 239.058 115.134C236.248 117.94 235.584 119.408 235.584 119.408" stroke="white" stroke-width="0.5" stroke-miterlimit="10" stroke-linecap="round" stroke-linejoin="round"/>
</g>
<defs>
<clipPath id="clip0_446_31">
<rect width="448" height="503" fill="white" transform="translate(34)"/>
</clipPath>
</defs>
</svg>
