<svg width="262" height="6" viewBox="0 0 262 6" fill="none" xmlns="http://www.w3.org/2000/svg">
<path d="M133.698 1.34358C116.662 1.37254 99.3615 1.33269 82.3253 1.42966C62.6279 1.51004 43.1951 1.72724 23.7633 1.94443C18.7059 1.98092 13.9135 2.08621 8.85565 2.18984C7.57621 2.25092 6.31655 2.49453 5.12511 2.9113C4.06254 2.56632 2.99997 2.22135 2.20381 1.87804C3.43151 1.59538 4.67704 1.37718 5.93392 1.2246C14.9853 0.942685 24.0373 0.727046 33.3543 0.583694C52.5207 0.36484 71.6875 0.0779707 91.118 0.0639464C121.195 0.1163 151.539 0.372622 181.882 0.561796C186.404 0.58999 190.665 0.684577 195.189 0.779927C199.447 0.874494 199.978 1.08011 199.439 2.15982C220.199 2.42441 240.96 2.75702 261.717 3.42797L261.715 3.76717C260.65 3.76054 259.585 3.82192 258.254 3.81362C244.414 3.65931 230.574 3.43786 216.732 3.41958C195.438 3.42199 173.878 3.49075 152.582 3.69633C121.438 3.97567 90.2913 4.45906 58.8829 4.87192C42.1094 5.10133 24.8042 5.60386 7.49993 5.97211C2.97494 6.07819 0.580837 5.7938 0.584637 5.18428C0.590965 4.16927 4.05101 4.25799 6.44622 4.20578C20.5565 3.82024 34.6663 3.50184 49.0415 3.1851C64.7483 2.80951 80.4546 2.50106 96.4274 2.19428C105.213 2.04587 114.263 1.89911 123.048 1.74983C126.509 1.70339 130.235 1.65947 133.697 1.54588C133.963 1.48069 133.964 1.41326 133.698 1.34358Z" fill="#FE99A6"/>
</svg>
